<svg width="808" height="557" viewBox="0 0 808 557" fill="none" xmlns="http://www.w3.org/2000/svg">
<g clip-path="url(#clip0_1_2)">
<path d="M289.898 416.346C289.941 415.094 286.668 413.925 282.59 413.735C278.511 413.546 275.17 414.407 275.127 415.659C275.085 416.911 278.357 418.08 282.436 418.27C286.515 418.46 289.856 417.599 289.898 416.346Z" fill="#E6E6E6"/>
<path d="M346.954 387.861C346.996 386.609 343.724 385.44 339.645 385.251C335.566 385.061 332.225 385.922 332.182 387.174C332.14 388.427 335.412 389.596 339.491 389.785C343.57 389.975 346.911 389.114 346.954 387.861Z" fill="#3F3D56"/>
<path d="M216.211 404.645C216.253 403.393 212.981 402.224 208.902 402.034C204.823 401.845 201.482 402.706 201.44 403.958C201.397 405.21 204.67 406.379 208.749 406.569C212.828 406.759 216.169 405.898 216.211 404.645Z" fill="#FF6584"/>
<path d="M249.095 393.106C249.204 391.988 247.829 390.886 246.025 390.645C244.22 390.404 242.67 391.115 242.561 392.233C242.452 393.351 243.827 394.452 245.631 394.693C247.436 394.935 248.986 394.224 249.095 393.106Z" fill="#E6E6E6"/>
<path d="M161.332 388.923C161.441 387.805 160.066 386.704 158.262 386.462C156.457 386.221 154.906 386.932 154.798 388.05C154.689 389.168 156.064 390.27 157.868 390.511C159.672 390.752 161.223 390.041 161.332 388.923Z" fill="#3F3D56"/>
<path d="M299.601 402.268C299.71 401.15 298.335 400.048 296.531 399.807C294.726 399.566 293.175 400.277 293.067 401.395C292.958 402.513 294.333 403.615 296.137 403.856C297.942 404.097 299.492 403.386 299.601 402.268Z" fill="#E6E6E6"/>
<path d="M249.13 384.448C249.239 383.33 247.864 382.228 246.06 381.987C244.255 381.746 242.704 382.457 242.596 383.575C242.487 384.693 243.862 385.794 245.666 386.035C247.471 386.277 249.021 385.566 249.13 384.448Z" fill="#FF6584"/>
<path d="M285.394 409.064C285.503 407.946 284.128 406.844 282.324 406.603C280.52 406.362 278.969 407.073 278.86 408.191C278.752 409.309 280.126 410.41 281.931 410.652C283.735 410.893 285.286 410.182 285.394 409.064Z" fill="#3F3D56"/>
<path d="M114.519 370.361C114.519 370.508 114.541 370.654 114.584 370.79C114.628 370.926 114.691 371.049 114.772 371.153C114.852 371.257 114.947 371.34 115.052 371.396C115.157 371.452 115.27 371.48 115.383 371.48H728.242C728.471 371.48 728.691 371.362 728.853 371.152C729.015 370.942 729.106 370.658 729.106 370.361C729.106 370.064 729.015 369.78 728.853 369.57C728.691 369.36 728.471 369.242 728.242 369.242H115.383C115.27 369.242 115.157 369.27 115.052 369.326C114.947 369.383 114.852 369.465 114.771 369.569C114.691 369.673 114.628 369.796 114.584 369.932C114.541 370.068 114.519 370.214 114.519 370.361Z" fill="#CCCCCC"/>
<path d="M641.297 20.1858C638.981 -0.625741 598.039 0.701847 594.173 20.2822C592.122 18.7783 586.905 19.8192 584.96 21.5478C583.014 23.2763 581.767 25.8174 580.546 28.2841C578.88 31.7102 577.152 35.2589 576.783 39.1873C576.398 43.108 577.712 47.5496 580.744 49.2954C583.149 50.6867 588.441 49.7472 591.085 49.1243C592.93 48.6943 594.479 48.3176 595.793 47.9482C596.234 45.5113 595.93 42.97 594.933 40.7701C595.995 41.0174 596.997 41.5373 597.868 42.2924C598.738 43.0475 599.456 44.0192 599.968 45.1378C600.175 45.6063 607.676 111.809 607.676 111.809C609.727 112.099 611.796 112.159 613.856 111.99C615.135 103.842 615.368 95.5163 614.547 87.288C616.719 91.991 618.437 96.9633 619.67 102.113C620.377 104.993 620.957 107.913 621.409 110.863C639.261 106.949 663.393 93.4682 667.796 70.5778C667.772 70.504 667.747 70.4301 667.723 70.3563C667.482 69.6568 667.456 68.881 667.65 68.1616C667.844 67.4423 668.244 66.8243 668.784 66.4134C669.323 66.0025 669.968 65.8244 670.607 65.9094C671.247 65.9945 671.841 66.3375 672.288 66.8797C672.826 67.5291 673.306 68.0842 673.711 68.5143C672.147 53.8961 662.689 40.7418 641.297 20.1858Z" fill="#333333"/>
<path d="M380.64 529.882L370.632 523.747L386.502 474.556L401.274 483.611L380.64 529.882Z" fill="#A0616A"/>
<path d="M340.256 529.289C339.637 530.68 339.513 532.303 339.913 533.801C340.313 535.3 341.204 536.55 342.39 537.28L362.29 549.476L369.421 543.262L367.055 552.391L374.561 557L385.678 526.048L383.144 524.268L372.82 516.977L369.486 514.633L365.741 523.03L344.11 526.157C343.299 526.274 342.525 526.621 341.854 527.166C341.182 527.712 340.634 528.44 340.256 529.289Z" fill="#333333"/>
<path d="M370.387 348.791L363.107 338.667L393.691 300.194L404.435 315.136L370.387 348.791Z" fill="#A0616A"/>
<path d="M333.205 330.301C332.182 331.314 331.544 332.761 331.43 334.326C331.316 335.89 331.736 337.443 332.597 338.644L347.072 358.772L355.68 356.19L350.54 363.587L355.998 371.187L376.288 347.481L374.518 344.708L367.32 333.374L364.992 329.723L358.813 335.831L337.784 329.115C336.996 328.864 336.167 328.84 335.37 329.047C334.572 329.254 333.829 329.684 333.205 330.301Z" fill="#333333"/>
<path d="M691.44 310.855C691.44 310.855 722.347 388.417 594.357 367.517C594.357 367.517 526.166 278.912 528.136 268.252C528.136 268.252 499.113 233.674 500.533 233.045C501.954 232.415 502.83 231.048 500.483 231.172C498.136 231.296 498.136 227.2 498.136 227.2C498.136 227.2 445.685 293.891 401.52 326.985L386.251 306.844C386.251 306.844 392.206 285.004 395.069 285.004C397.932 285.004 398.919 285.811 399.38 281.491C399.841 277.172 397.561 273.463 400.609 273.079C403.658 272.696 466.842 186.115 466.842 186.115C466.842 186.115 473.659 157.597 494.486 163.117C515.314 168.637 623.54 271.802 623.54 271.802L691.44 310.855Z" fill="#333333"/>
<path d="M639.321 370.03L470.232 368.385L396.749 504.892L375.982 492.004L380.586 489.726C380.586 489.726 379.192 470.753 380.899 465.95C382.607 461.146 387.685 462.591 387.685 462.591L430.528 346.751C433.483 336.469 439.287 327.642 447.017 321.675C454.747 315.709 463.957 312.947 473.18 313.83C508.63 307.768 566.176 312.612 625.96 318.56L639.321 370.03Z" fill="#333333"/>
<path d="M541.423 137.708C544.642 138.287 547.541 140.315 549.504 143.361C551.466 146.407 552.338 150.231 551.932 154.019C551.839 154.788 551.693 155.546 551.493 156.286L586.237 187.185L579.068 213.372L535.376 165.011C532.822 163.803 530.682 161.639 529.288 158.856C527.894 156.072 527.325 152.826 527.67 149.624C527.881 147.804 528.396 146.051 529.186 144.464C529.975 142.877 531.023 141.488 532.27 140.377C533.517 139.265 534.938 138.452 536.453 137.984C537.968 137.517 539.547 137.404 541.099 137.651C541.208 137.669 541.316 137.688 541.423 137.708Z" fill="#A0616A"/>
<path d="M694.7 139.637L682.208 180.187L633.356 261.129C633.356 261.129 632.955 260.928 632.23 260.57C628.031 258.444 612.781 250.634 598.437 241.761C584.972 233.425 572.289 224.149 570.323 217.771C570.113 217.1 569.922 216.451 569.75 215.824V215.813C568.834 212.565 568.261 209.198 568.042 205.787C567.88 203.158 568.023 201.748 567.717 201.58C567.479 201.457 566.983 202.062 565.885 203.427C565.809 203.516 565.742 203.606 565.666 203.684C561.696 208.35 556.819 207.746 558.012 205.53C559.234 203.259 558.594 203.303 556.8 200.931C555.464 199.164 551.122 192.249 548.984 188.836C548.249 187.661 547.782 186.9 547.782 186.9L548.516 185.546L550.549 181.809L560.216 164.041L560.751 163.067C560.751 163.067 580.62 168.449 583.263 173.563C585.916 178.676 579.265 178.508 585.916 178.676C592.568 178.844 599.353 168.237 594.496 178.788C589.638 189.328 590.917 193.009 596.929 191.342C599.372 190.66 603.237 192.819 606.959 195.617V195.628C609.287 197.401 611.533 199.317 613.687 201.368C615.987 203.538 617.543 205.183 617.543 205.183L655.277 115.424L659.457 105.488C660.731 102.464 662.506 99.7692 664.679 97.5597C666.852 95.3503 669.378 93.6711 672.111 92.6203L673.419 95.2945C681.559 109.351 688.678 124.184 694.7 139.637Z" fill="#FF6D00"/>
<path d="M696.79 268.335C708.357 271.49 696.052 370.206 682.265 370.514C582.061 372.752 612.571 306.837 607.198 300.526C601.825 294.204 596.977 298.736 601.825 288.901C605.356 281.74 610.595 282.802 610.672 278.786C610.71 277.286 610.032 275.093 608.276 271.49C601.825 258.242 601.825 254.293 601.825 254.293C600.217 250.314 599.077 246.099 598.437 241.761C597.391 235.31 597.262 228.702 598.055 222.202C599.267 212.667 602.312 203.58 606.959 195.628V195.617C607.446 194.766 607.952 193.905 608.486 193.054C609.698 191.119 616.417 191.488 616.417 191.488L630.732 120.996L622.448 92.8889L661.68 71.3386L672.111 92.6204L673.419 95.2946C681.559 109.351 688.678 124.184 694.7 139.637C700.493 154.754 705.255 171.538 705.427 186.139C705.885 224.216 700.283 235.539 700.283 235.539C700.283 235.539 713.882 247.456 707.078 254.74C700.283 262.035 685.224 265.18 696.79 268.335Z" fill="#FF6D00"/>
<path d="M519.057 128.434L512.655 134.136C511.391 135.269 510.561 136.944 510.348 138.794C510.135 140.643 510.556 142.516 511.518 144.003L526.935 167.761L536.039 181.778C537.004 183.259 538.43 184.23 540.005 184.479C541.58 184.729 543.175 184.237 544.441 183.11L550.85 177.402C552.109 176.265 552.934 174.591 553.146 172.744C553.357 170.898 552.938 169.028 551.979 167.542L551.035 166.077L532.359 137.308L527.459 129.766C526.982 129.031 526.386 128.414 525.706 127.95C525.025 127.485 524.273 127.182 523.493 127.059C522.713 126.935 521.919 126.993 521.158 127.229C520.397 127.465 519.683 127.875 519.057 128.434Z" fill="#3F3D56"/>
<path d="M522.404 128.003L515.508 133.644C514.9 134.11 514.383 134.722 513.992 135.44C513.6 136.157 513.343 136.964 513.236 137.807C513.13 138.649 513.177 139.509 513.375 140.329C513.573 141.149 513.917 141.91 514.384 142.563L523.409 155.314L528.219 162.106L531.429 166.638L538.606 176.777C539.62 178.137 541.027 179.012 542.556 179.235C544.086 179.458 545.632 179.014 546.9 177.987L552.067 173.761L553.787 172.355C554.644 171.685 555.313 170.733 555.71 169.618C556.107 168.504 556.214 167.277 556.018 166.091C555.845 165.106 555.466 164.187 554.913 163.417L533.705 133.454L530.699 129.213C529.685 127.851 528.279 126.975 526.748 126.751C525.218 126.528 523.672 126.974 522.404 128.003Z" fill="#FF6D00"/>
<path d="M526.811 159.496C530.029 160.075 532.928 162.103 534.891 165.149C536.854 168.195 537.725 172.019 537.32 175.807C537.227 176.576 537.08 177.334 536.881 178.074L571.625 208.973L564.455 235.16L520.763 186.798C518.21 185.591 516.069 183.427 514.675 180.644C513.281 177.86 512.712 174.614 513.057 171.412C513.269 169.592 513.784 167.838 514.573 166.252C515.362 164.665 516.41 163.276 517.657 162.164C518.904 161.053 520.326 160.24 521.841 159.772C523.356 159.305 524.934 159.191 526.487 159.439C526.595 159.456 526.703 159.475 526.811 159.496Z" fill="#A0616A"/>
<path d="M668.514 113.671C671.551 114.395 674.419 115.879 676.923 118.019C679.428 120.16 681.509 122.908 683.027 126.077C684.545 129.245 685.463 132.759 685.718 136.381C685.974 140.002 685.562 143.646 684.509 147.064L667.6 201.972L618.74 282.921C618.74 282.921 560.144 253.902 555.708 239.559C551.271 225.215 555.278 220.266 551.271 225.215C547.265 230.164 542.186 229.578 543.402 227.313C544.618 225.048 543.978 225.096 542.187 222.723C540.397 220.351 533.17 208.692 533.17 208.692L546.138 184.857C546.138 184.857 566.008 190.235 568.655 195.352C571.302 200.468 564.649 200.301 571.302 200.468C577.956 200.636 584.743 190.025 579.883 200.573C575.023 211.121 576.304 214.799 582.317 213.127C588.33 211.456 602.926 226.973 602.926 226.973L644.848 127.278C646.957 122.264 650.422 118.209 654.703 115.747C658.985 113.285 663.841 112.555 668.514 113.671Z" fill="#FF6D00"/>
<path d="M643.512 80.6184C655.658 66.3768 655.658 43.2867 643.512 29.0452C631.365 14.8037 611.671 14.8037 599.525 29.0452C587.378 43.2867 587.378 66.3768 599.525 80.6184C611.671 94.8599 631.365 94.8599 643.512 80.6184Z" fill="#A0616A"/>
<path d="M657.889 15.1035C655.573 -5.70808 614.63 -4.38049 610.764 15.1998C608.713 13.696 603.497 14.7369 601.551 16.4654C599.606 18.194 598.359 20.735 597.138 23.2017C595.471 26.6279 583.809 38.219 582.061 34.8396C578.128 27.2342 570.416 43.8533 576.335 54.9801C577.754 57.648 605.184 53.3651 607.828 52.7422C609.673 52.3122 606.514 53.1116 607.828 52.7422C608.252 50.3284 612.537 37.8566 611.524 35.6878C612.586 35.9351 613.589 36.4549 614.459 37.21C615.33 37.9652 616.047 38.9369 616.56 40.0554C616.767 40.5239 624.268 106.727 624.268 106.727C626.319 107.016 628.388 107.077 630.448 106.907C631.727 98.7598 631.959 90.4339 631.138 82.2056C633.311 86.9087 635.029 91.8809 636.262 97.0302C636.968 99.9103 637.549 102.831 638.001 105.78C655.853 101.867 679.984 88.3858 684.387 65.4954C660.316 56.099 679.281 35.6595 657.889 15.1035Z" fill="#333333"/>
<path d="M35.036 199.59C35.4349 196.375 32.5632 193.224 28.6219 192.552C24.6806 191.88 21.1621 193.941 20.7632 197.155C20.3643 200.37 23.2359 203.521 27.1773 204.193C31.1186 204.866 34.637 202.805 35.036 199.59Z" fill="#E6E6E6"/>
<path d="M319.425 281.271C319.824 278.056 316.953 274.905 313.011 274.233C309.07 273.56 305.552 275.621 305.153 278.836C304.754 282.051 307.625 285.202 311.567 285.874C315.508 286.546 319.026 284.485 319.425 281.271Z" fill="#3F3D56"/>
<path d="M189.637 114.552C190.036 111.338 187.164 108.187 183.223 107.514C179.282 106.842 175.763 108.903 175.364 112.118C174.965 115.332 177.837 118.483 181.778 119.156C185.72 119.828 189.238 117.767 189.637 114.552Z" fill="#FF6584"/>
<path d="M177.2 155.335C177.219 152.383 175.815 149.978 174.064 149.963C172.313 149.947 170.878 152.327 170.859 155.278C170.84 158.229 172.244 160.634 173.995 160.65C175.746 160.666 177.181 158.286 177.2 155.335Z" fill="#E6E6E6"/>
<path d="M150.479 103.864C150.498 100.913 149.094 98.5082 147.343 98.4927C145.592 98.4772 144.157 100.857 144.138 103.808C144.119 106.759 145.523 109.164 147.274 109.18C149.025 109.195 150.46 106.816 150.479 103.864Z" fill="#3F3D56"/>
<path d="M221.099 103.864C221.118 100.913 219.714 98.5082 217.963 98.4927C216.212 98.4772 214.777 100.857 214.758 103.808C214.739 106.759 216.143 109.164 217.894 109.18C219.645 109.195 221.08 106.816 221.099 103.864Z" fill="#E6E6E6"/>
<path d="M528.375 54.3998C528.394 51.4486 526.99 49.0436 525.239 49.0281C523.488 49.0126 522.053 51.3924 522.034 54.3436C522.015 57.2947 523.419 59.6997 525.17 59.7152C526.921 59.7307 528.356 57.351 528.375 54.3998Z" fill="#FF6584"/>
<path d="M245.911 98.2698C245.931 95.3186 244.526 92.9137 242.775 92.8981C241.024 92.8826 239.59 95.2624 239.571 98.2136C239.552 101.165 240.956 103.57 242.707 103.585C244.458 103.601 245.892 101.221 245.911 98.2698Z" fill="#3F3D56"/>
<path d="M516.473 151.912C516.901 151.553 516.628 150.243 515.862 148.986C515.095 147.729 514.126 147.002 513.698 147.361C513.269 147.72 513.543 149.031 514.309 150.287C515.075 151.544 516.044 152.272 516.473 151.912Z" fill="#3F3D56"/>
<path d="M513.61 147.437C514.038 147.077 513.765 145.767 512.999 144.51C512.232 143.254 511.263 142.526 510.835 142.885C510.406 143.245 510.68 144.555 511.446 145.812C512.212 147.069 513.181 147.796 513.61 147.437Z" fill="#3F3D56"/>
<path d="M45.9951 54.2554C46.394 51.0408 43.5223 47.8898 39.581 47.2174C35.6397 46.5451 32.1212 48.606 31.7223 51.8206C31.3234 55.0353 34.195 58.1863 38.1364 58.8587C42.0777 59.531 45.5962 57.4701 45.9951 54.2554Z" fill="#E6E6E6"/>
<path d="M262.166 172.736C262.565 169.521 259.693 166.37 255.752 165.698C251.81 165.026 248.292 167.087 247.893 170.301C247.494 173.516 250.366 176.667 254.307 177.339C258.248 178.012 261.767 175.951 262.166 172.736Z" fill="#3F3D56"/>
<path d="M290.995 203.255C291.394 200.041 288.522 196.89 284.581 196.217C280.64 195.545 277.121 197.606 276.722 200.821C276.323 204.035 279.195 207.186 283.136 207.859C287.078 208.531 290.596 206.47 290.995 203.255Z" fill="#FF6584"/>
<path d="M353.031 131.134C353.05 128.183 351.646 125.778 349.895 125.762C348.144 125.747 346.709 128.127 346.69 131.078C346.671 134.029 348.075 136.434 349.826 136.45C351.577 136.465 353.012 134.085 353.031 131.134Z" fill="#E6E6E6"/>
<path d="M303.171 92.6752C303.19 89.724 301.786 87.3191 300.035 87.3035C298.284 87.288 296.849 89.6678 296.83 92.619C296.811 95.5702 298.215 97.9752 299.966 97.9907C301.717 98.0062 303.152 95.6264 303.171 92.6752Z" fill="#3F3D56"/>
<path d="M585.375 117.4C585.394 114.449 583.99 112.044 582.239 112.028C580.488 112.013 579.053 114.392 579.034 117.344C579.015 120.295 580.419 122.7 582.17 122.715C583.921 122.731 585.356 120.351 585.375 117.4Z" fill="#E6E6E6"/>
<path d="M366.157 266.107C366.176 263.156 364.772 260.751 363.021 260.735C361.27 260.72 359.835 263.1 359.816 266.051C359.797 269.002 361.201 271.407 362.952 271.423C364.703 271.438 366.138 269.058 366.157 266.107Z" fill="#3F3D56"/>
<path d="M236.399 329.384C236.798 326.17 233.926 323.019 229.985 322.346C226.044 321.674 222.525 323.735 222.126 326.949C221.727 330.164 224.599 333.315 228.54 333.987C232.482 334.66 236 332.599 236.399 329.384Z" fill="#3F3D56"/>
<path d="M59.9951 353.255C60.394 350.041 57.5223 346.89 53.581 346.217C49.6397 345.545 46.1212 347.606 45.7223 350.821C45.3234 354.035 48.1951 357.186 52.1364 357.859C56.0777 358.531 59.5961 356.47 59.9951 353.255Z" fill="#FF6584"/>
<path d="M156.205 232.54C156.224 229.589 154.82 227.184 153.069 227.168C151.318 227.152 149.883 229.532 149.864 232.483C149.845 235.435 151.249 237.84 153 237.855C154.751 237.871 156.186 235.491 156.205 232.54Z" fill="#E6E6E6"/>
<path d="M129.484 181.07C129.503 178.118 128.099 175.713 126.348 175.698C124.597 175.682 123.162 178.062 123.143 181.013C123.124 183.965 124.528 186.37 126.279 186.385C128.03 186.401 129.465 184.021 129.484 181.07Z" fill="#3F3D56"/>
<path d="M494.375 274.4C494.394 271.449 492.99 269.044 491.239 269.028C489.488 269.013 488.053 271.392 488.034 274.344C488.015 277.295 489.419 279.7 491.17 279.715C492.921 279.731 494.356 277.351 494.375 274.4Z" fill="#E6E6E6"/>
<path d="M356.613 212.399C356.632 209.448 355.228 207.043 353.477 207.028C351.726 207.012 350.291 209.392 350.272 212.343C350.253 215.294 351.657 217.699 353.408 217.715C355.159 217.73 356.594 215.35 356.613 212.399Z" fill="#FF6584"/>
<path d="M256.409 232.54C256.428 229.589 255.024 227.184 253.273 227.168C251.522 227.152 250.087 229.532 250.068 232.483C250.049 235.435 251.453 237.84 253.204 237.855C254.955 237.871 256.39 235.491 256.409 232.54Z" fill="#3F3D56"/>
<path d="M397.995 235.255C398.394 232.041 395.522 228.89 391.581 228.217C387.64 227.545 384.121 229.606 383.722 232.821C383.323 236.035 386.195 239.186 390.136 239.859C394.078 240.531 397.596 238.47 397.995 235.255Z" fill="#E6E6E6"/>
<path d="M406.269 170.498C406.668 167.284 403.796 164.133 399.855 163.46C395.914 162.788 392.395 164.849 391.996 168.063C391.597 171.278 394.469 174.429 398.41 175.101C402.352 175.774 405.87 173.713 406.269 170.498Z" fill="#3F3D56"/>
<path d="M253.577 282.39C253.976 279.175 251.104 276.024 247.163 275.352C243.221 274.679 239.703 276.74 239.304 279.955C238.905 283.17 241.777 286.321 245.718 286.993C249.659 287.665 253.178 285.604 253.577 282.39Z" fill="#FF6584"/>
<path d="M332.035 208.339C332.054 205.388 330.65 202.983 328.899 202.968C327.148 202.952 325.713 205.332 325.694 208.283C325.675 211.234 327.079 213.639 328.83 213.655C330.581 213.67 332.016 211.29 332.035 208.339Z" fill="#E6E6E6"/>
<path d="M178.154 273.94C178.173 270.988 176.769 268.583 175.018 268.568C173.267 268.552 171.832 270.932 171.813 273.883C171.794 276.835 173.198 279.24 174.949 279.255C176.7 279.271 178.135 276.891 178.154 273.94Z" fill="#3F3D56"/>
<path d="M438.375 186.4C438.394 183.449 436.99 181.044 435.239 181.028C433.488 181.013 432.053 183.392 432.034 186.344C432.015 189.295 433.419 191.7 435.17 191.715C436.921 191.731 438.356 189.351 438.375 186.4Z" fill="#E6E6E6"/>
<path d="M345.161 343.312C345.18 340.361 343.776 337.956 342.025 337.941C340.274 337.925 338.84 340.305 338.821 343.256C338.801 346.207 340.206 348.612 341.957 348.628C343.708 348.643 345.142 346.264 345.161 343.312Z" fill="#3F3D56"/>
<path d="M683.831 390.099C683.873 388.847 680.601 387.678 676.522 387.488C672.443 387.299 669.102 388.16 669.06 389.412C669.018 390.664 672.29 391.833 676.369 392.023C680.448 392.213 683.789 391.352 683.831 390.099Z" fill="#3F3D56"/>
<path d="M553.088 406.883C553.131 405.631 549.858 404.462 545.779 404.272C541.7 404.082 538.359 404.944 538.317 406.196C538.275 407.448 541.547 408.617 545.626 408.807C549.705 408.997 553.046 408.135 553.088 406.883Z" fill="#FF6584"/>
<path d="M498.209 391.161C498.318 390.043 496.943 388.941 495.139 388.7C493.335 388.459 491.784 389.17 491.675 390.288C491.566 391.406 492.941 392.508 494.745 392.749C496.55 392.99 498.101 392.279 498.209 391.161Z" fill="#3F3D56"/>
<path d="M586.007 386.685C586.116 385.568 584.741 384.466 582.937 384.225C581.133 383.984 579.582 384.694 579.473 385.812C579.365 386.93 580.739 388.032 582.544 388.273C584.348 388.514 585.899 387.803 586.007 386.685Z" fill="#FF6584"/>
<path d="M622.272 411.302C622.38 410.184 621.006 409.082 619.201 408.841C617.397 408.6 615.846 409.311 615.738 410.429C615.629 411.547 617.004 412.648 618.808 412.889C620.612 413.13 622.163 412.42 622.272 411.302Z" fill="#3F3D56"/>
<path d="M62.7114 82.1038C63.1104 78.8892 60.2387 75.7381 56.2974 75.0658C52.3561 74.3934 48.8376 76.4544 48.4387 79.669C48.0398 82.8837 50.9114 86.0347 54.8528 86.707C58.7941 87.3794 62.3125 85.3185 62.7114 82.1038Z" fill="#FF6584"/>
<path d="M50.2744 122.886C50.2935 119.935 48.8894 117.53 47.1384 117.514C45.3874 117.499 43.9525 119.879 43.9335 122.83C43.9145 125.781 45.3185 128.186 47.0695 128.201C48.8205 128.217 50.2554 125.837 50.2744 122.886Z" fill="#E6E6E6"/>
<path d="M23.5533 71.4158C23.5723 68.4646 22.1683 66.0596 20.4172 66.0441C18.6662 66.0285 17.2314 68.4084 17.2123 71.3595C17.1933 74.3107 18.5973 76.7157 20.3483 76.7312C22.0993 76.7468 23.5342 74.3669 23.5533 71.4158Z" fill="#3F3D56"/>
<path d="M123.375 95.3998C123.394 92.4487 121.99 90.0437 120.239 90.0281C118.488 90.0126 117.053 92.3924 117.034 95.3436C117.015 98.2948 118.419 100.7 120.17 100.715C121.921 100.731 123.356 98.351 123.375 95.3998Z" fill="#E6E6E6"/>
<path d="M118.986 65.8213C119.005 62.8701 117.601 60.4651 115.85 60.4496C114.099 60.4341 112.664 62.8139 112.645 65.7651C112.626 68.7162 114.03 71.1212 115.781 71.1368C117.532 71.1523 118.967 68.7725 118.986 65.8213Z" fill="#3F3D56"/>
<path d="M135.24 140.287C135.639 137.073 132.768 133.922 128.826 133.249C124.885 132.577 121.366 134.638 120.967 137.853C120.569 141.067 123.44 144.218 127.382 144.891C131.323 145.563 134.841 143.502 135.24 140.287Z" fill="#3F3D56"/>
<path d="M190.591 113.433C190.99 110.219 188.118 107.068 184.177 106.395C180.236 105.723 176.717 107.784 176.318 110.999C175.92 114.213 178.791 117.364 182.733 118.037C186.674 118.709 190.192 116.648 190.591 113.433Z" fill="#FF6584"/>
<path d="M269.375 76.3998C269.394 73.4487 267.99 71.0437 266.239 71.0281C264.488 71.0126 263.053 73.3924 263.034 76.3436C263.015 79.2948 264.419 81.6998 266.17 81.7153C267.921 81.7308 269.356 79.351 269.375 76.3998Z" fill="#E6E6E6"/>
<path d="M176.246 60.2267C176.265 57.2755 174.861 54.8705 173.11 54.855C171.359 54.8395 169.924 57.2193 169.905 60.1705C169.886 63.1216 171.29 65.5266 173.041 65.5421C174.792 65.5577 176.227 63.1778 176.246 60.2267Z" fill="#3F3D56"/>
<path d="M2.55807 148.621C2.57711 145.67 1.17307 143.265 -0.577929 143.249C-2.32893 143.234 -3.76382 145.614 -3.78286 148.565C-3.80189 151.516 -2.39786 153.921 -0.646856 153.936C1.10415 153.952 2.53904 151.572 2.55807 148.621Z" fill="#3F3D56"/>
<path d="M73.1783 148.621C73.1973 145.67 71.7933 143.265 70.0422 143.249C68.2912 143.234 66.8564 145.614 66.8373 148.565C66.8183 151.516 68.2223 153.921 69.9733 153.936C71.7243 153.952 73.1592 151.572 73.1783 148.621Z" fill="#E6E6E6"/>
<path d="M229.375 206.4C229.394 203.449 227.99 201.044 226.239 201.028C224.488 201.013 223.053 203.392 223.034 206.344C223.015 209.295 224.419 211.7 226.17 211.715C227.921 211.731 229.356 209.351 229.375 206.4Z" fill="#E6E6E6"/>
<path d="M27.4013 260.011C27.8002 256.797 24.9286 253.646 20.9873 252.973C17.0459 252.301 13.5275 254.362 13.1286 257.577C12.7296 260.791 15.6013 263.942 19.5426 264.615C23.484 265.287 27.0024 263.226 27.4013 260.011Z" fill="#FF6584"/>
<path d="M14.9643 300.794C14.9834 297.842 13.5793 295.437 11.8283 295.422C10.0773 295.406 8.64243 297.786 8.62339 300.737C8.60436 303.688 10.0084 306.093 11.7594 306.109C13.5104 306.125 14.9453 303.745 14.9643 300.794Z" fill="#E6E6E6"/>
<path d="M58.8634 249.323C58.8824 246.372 57.4784 243.967 55.7274 243.952C53.9764 243.936 52.5415 246.316 52.5224 249.267C52.5034 252.218 53.9074 254.623 55.6584 254.639C57.4094 254.654 58.8443 252.275 58.8634 249.323Z" fill="#E6E6E6"/>
<path d="M83.6759 243.729C83.6949 240.778 82.2909 238.373 80.5399 238.357C78.7889 238.342 77.354 240.721 77.3349 243.673C77.3159 246.624 78.7199 249.029 80.4709 249.044C82.2219 249.06 83.6569 246.68 83.6759 243.729Z" fill="#3F3D56"/>
<path d="M99.9302 318.195C100.329 314.98 97.4574 311.829 93.5161 311.157C89.5748 310.485 86.0564 312.546 85.6574 315.76C85.2585 318.975 88.1302 322.126 92.0715 322.798C96.0128 323.471 99.5313 321.41 99.9302 318.195Z" fill="#3F3D56"/>
<path d="M155.281 291.341C155.68 288.126 152.808 284.975 148.867 284.303C144.926 283.631 141.407 285.692 141.008 288.906C140.609 292.121 143.481 295.272 147.422 295.944C151.364 296.617 154.882 294.556 155.281 291.341Z" fill="#FF6584"/>
<path d="M289.375 328.4C289.394 325.449 287.99 323.044 286.239 323.028C284.488 323.013 283.053 325.392 283.034 328.344C283.015 331.295 284.419 333.7 286.17 333.715C287.921 333.731 289.356 331.351 289.375 328.4Z" fill="#E6E6E6"/>
<path d="M140.935 238.134C140.954 235.183 139.55 232.778 137.799 232.763C136.048 232.747 134.614 235.127 134.595 238.078C134.575 241.029 135.98 243.434 137.731 243.45C139.482 243.465 140.916 241.085 140.935 238.134Z" fill="#3F3D56"/>
<path d="M37.8682 326.529C37.8872 323.577 36.4832 321.172 34.7322 321.157C32.9812 321.141 31.5463 323.521 31.5273 326.472C31.5082 329.424 32.9123 331.829 34.6633 331.844C36.4143 331.86 37.8492 329.48 37.8682 326.529Z" fill="#E6E6E6"/>
<path d="M169.8 353.798C169.819 350.847 168.415 348.442 166.664 348.427C164.913 348.411 163.478 350.791 163.459 353.742C163.44 356.693 164.844 359.098 166.595 359.114C168.346 359.129 169.781 356.75 169.8 353.798Z" fill="#E6E6E6"/>
<path d="M498.454 98.7256C498.853 95.5109 495.981 92.3599 492.04 91.6875C488.099 91.0152 484.58 93.0761 484.181 96.2908C483.783 99.5054 486.654 102.656 490.596 103.329C494.537 104.001 498.055 101.94 498.454 98.7256Z" fill="#FF6584"/>
<path d="M486.017 139.508C486.036 136.556 484.632 134.151 482.881 134.136C481.13 134.12 479.695 136.5 479.676 139.451C479.657 142.403 481.061 144.808 482.812 144.823C484.563 144.839 485.998 142.459 486.017 139.508Z" fill="#E6E6E6"/>
<path d="M459.296 88.0375C459.315 85.0863 457.911 82.6814 456.16 82.6658C454.409 82.6503 452.974 85.0301 452.955 87.9813C452.936 90.9325 454.34 93.3375 456.091 93.353C457.842 93.3685 459.277 90.9887 459.296 88.0375Z" fill="#3F3D56"/>
<path d="M529.916 88.0375C529.935 85.0863 528.531 82.6814 526.78 82.6658C525.029 82.6503 523.594 85.0301 523.575 87.9813C523.556 90.9325 524.96 93.3375 526.711 93.353C528.462 93.3685 529.897 90.9887 529.916 88.0375Z" fill="#E6E6E6"/>
<path d="M554.729 82.443C554.748 79.4918 553.344 77.0868 551.593 77.0713C549.842 77.0558 548.407 79.4356 548.388 82.3868C548.369 85.3379 549.773 87.7429 551.524 87.7585C553.275 87.774 554.71 85.3942 554.729 82.443Z" fill="#3F3D56"/>
<path d="M600.995 154.255C601.394 151.041 598.522 147.89 594.581 147.217C590.64 146.545 587.121 148.606 586.722 151.821C586.323 155.035 589.195 158.186 593.136 158.859C597.078 159.531 600.596 157.47 600.995 154.255Z" fill="#3F3D56"/>
<path d="M345.375 169.4C345.394 166.449 343.99 164.044 342.239 164.028C340.488 164.013 339.053 166.392 339.034 169.344C339.015 172.295 340.419 174.7 342.17 174.715C343.921 174.731 345.356 172.351 345.375 169.4Z" fill="#3F3D56"/>
<path d="M508.921 165.243C508.94 162.292 507.536 159.887 505.785 159.871C504.034 159.855 502.599 162.235 502.58 165.186C502.561 168.138 503.965 170.543 505.716 170.558C507.467 170.574 508.902 168.194 508.921 165.243Z" fill="#E6E6E6"/>
<path d="M371.529 66.277C371.928 63.0623 369.056 59.9113 365.115 59.2389C361.173 58.5666 357.655 60.6275 357.256 63.8422C356.857 67.0568 359.729 70.2078 363.67 70.8802C367.611 71.5525 371.13 69.4916 371.529 66.277Z" fill="#FF6584"/>
<path d="M441.375 83.3998C441.394 80.4487 439.99 78.0437 438.239 78.0281C436.488 78.0126 435.053 80.3924 435.034 83.3436C435.015 86.2948 436.419 88.6998 438.17 88.7153C439.921 88.7308 441.356 86.351 441.375 83.3998Z" fill="#E6E6E6"/>
<path d="M332.371 55.5889C332.39 52.6377 330.986 50.2327 329.235 50.2172C327.484 50.2017 326.049 52.5815 326.03 55.5327C326.011 58.4839 327.415 60.8889 329.166 60.9044C330.917 60.9199 332.352 58.5401 332.371 55.5889Z" fill="#3F3D56"/>
<path d="M402.991 55.5889C403.01 52.6377 401.606 50.2327 399.855 50.2172C398.104 50.2017 396.669 52.5815 396.65 55.5327C396.631 58.4839 398.035 60.8889 399.786 60.9044C401.537 60.9199 402.972 58.5401 402.991 55.5889Z" fill="#E6E6E6"/>
<path d="M427.803 49.9944C427.822 47.0433 426.418 44.6383 424.667 44.6227C422.916 44.6072 421.481 46.987 421.462 49.9382C421.443 52.8894 422.847 55.2944 424.598 55.3099C426.349 55.3254 427.784 52.9456 427.803 49.9944Z" fill="#3F3D56"/>
<path d="M444.058 124.461C444.457 121.246 441.585 118.095 437.644 117.423C433.702 116.75 430.184 118.811 429.785 122.026C429.386 125.24 432.258 128.391 436.199 129.064C440.14 129.736 443.659 127.675 444.058 124.461Z" fill="#3F3D56"/>
<path d="M499.409 97.6066C499.807 94.392 496.936 91.2409 492.994 90.5686C489.053 89.8962 485.535 91.9572 485.136 95.1718C484.737 98.3865 487.609 101.537 491.55 102.21C495.491 102.882 499.01 100.821 499.409 97.6066Z" fill="#FF6584"/>
<path d="M578.193 60.573C578.212 57.6218 576.808 55.2168 575.057 55.2013C573.306 55.1858 571.871 57.5656 571.852 60.5168C571.833 63.4679 573.237 65.8729 574.988 65.8885C576.739 65.904 578.174 63.5242 578.193 60.573Z" fill="#E6E6E6"/>
<path d="M485.063 44.3998C485.082 41.4487 483.678 39.0437 481.927 39.0281C480.176 39.0126 478.741 41.3924 478.722 44.3436C478.703 47.2948 480.107 49.6998 481.858 49.7153C483.609 49.7308 485.044 47.351 485.063 44.3998Z" fill="#3F3D56"/>
<path d="M311.375 132.794C311.394 129.843 309.99 127.438 308.239 127.422C306.488 127.407 305.053 129.787 305.034 132.738C305.015 135.689 306.419 138.094 308.17 138.11C309.921 138.125 311.356 135.745 311.375 132.794Z" fill="#3F3D56"/>
<path d="M381.996 132.794C382.015 129.843 380.611 127.438 378.86 127.422C377.109 127.407 375.674 129.787 375.655 132.738C375.636 135.689 377.04 138.094 378.791 138.11C380.542 138.125 381.977 135.745 381.996 132.794Z" fill="#E6E6E6"/>
<path d="M710.995 107.255C711.394 104.041 708.522 100.89 704.581 100.217C700.64 99.5451 697.121 101.606 696.722 104.821C696.323 108.035 699.195 111.186 703.136 111.859C707.078 112.531 710.596 110.47 710.995 107.255Z" fill="#FF6584"/>
<path d="M741.375 207.4C741.394 204.449 739.99 202.044 738.239 202.028C736.488 202.013 735.053 204.392 735.034 207.344C735.015 210.295 736.419 212.7 738.17 212.715C739.921 212.731 741.356 210.351 741.375 207.4Z" fill="#E6E6E6"/>
<path d="M744.375 151.4C744.394 148.449 742.99 146.044 741.239 146.028C739.488 146.013 738.053 148.392 738.034 151.344C738.015 154.295 739.419 156.7 741.17 156.715C742.921 156.731 744.356 154.351 744.375 151.4Z" fill="#E6E6E6"/>
<path d="M738.375 279.4C738.394 276.449 736.99 274.044 735.239 274.028C733.488 274.013 732.053 276.392 732.034 279.344C732.015 282.295 733.419 284.7 735.17 284.715C736.921 284.731 738.356 282.351 738.375 279.4Z" fill="#E6E6E6"/>
<path d="M741.375 182.4C741.394 179.449 739.99 177.044 738.239 177.028C736.488 177.013 735.053 179.392 735.034 182.344C735.015 185.295 736.419 187.7 738.17 187.715C739.921 187.731 741.356 185.351 741.375 182.4Z" fill="#3F3D56"/>
<path d="M722.995 320.255C723.394 317.041 720.522 313.89 716.581 313.217C712.64 312.545 709.121 314.606 708.722 317.821C708.323 321.035 711.195 324.186 715.136 324.859C719.078 325.531 722.596 323.47 722.995 320.255Z" fill="#FF6584"/>
<path d="M773.995 105.255C774.394 102.041 771.522 98.8898 767.581 98.2174C763.64 97.5451 760.121 99.606 759.722 102.821C759.323 106.035 762.195 109.186 766.136 109.859C770.078 110.531 773.596 108.47 773.995 105.255Z" fill="#3F3D56"/>
<path d="M774.375 49.3998C774.394 46.4487 772.99 44.0437 771.239 44.0281C769.488 44.0126 768.053 46.3924 768.034 49.3436C768.015 52.2948 769.419 54.6998 771.17 54.7153C772.921 54.7308 774.356 52.351 774.375 49.3998Z" fill="#E6E6E6"/>
<path d="M722.375 252.4C722.394 249.449 720.99 247.044 719.239 247.028C717.488 247.013 716.053 249.392 716.034 252.344C716.015 255.295 717.419 257.7 719.17 257.715C720.921 257.731 722.356 255.351 722.375 252.4Z" fill="#3F3D56"/>
<path d="M721.995 178.255C722.394 175.041 719.522 171.89 715.581 171.217C711.64 170.545 708.121 172.606 707.722 175.821C707.323 179.035 710.195 182.186 714.136 182.859C718.078 183.531 721.596 181.47 721.995 178.255Z" fill="#3F3D56"/>
<path d="M770.375 359.4C770.394 356.449 768.99 354.044 767.239 354.028C765.488 354.013 764.053 356.392 764.034 359.344C764.015 362.295 765.419 364.7 767.17 364.715C768.921 364.731 770.356 362.351 770.375 359.4Z" fill="#3F3D56"/>
<path d="M781.375 221.4C781.394 218.449 779.99 216.044 778.239 216.028C776.488 216.013 775.053 218.392 775.034 221.344C775.015 224.295 776.419 226.7 778.17 226.715C779.921 226.731 781.356 224.351 781.375 221.4Z" fill="#E6E6E6"/>
<path d="M787.995 152.255C788.394 149.041 785.522 145.89 781.581 145.217C777.64 144.545 774.121 146.606 773.722 149.821C773.323 153.035 776.195 156.186 780.136 156.859C784.078 157.531 787.596 155.47 787.995 152.255Z" fill="#FF6584"/>
<path d="M772.375 305.4C772.394 302.449 770.99 300.044 769.239 300.028C767.488 300.013 766.053 302.392 766.034 305.344C766.015 308.295 767.419 310.7 769.17 310.715C770.921 310.731 772.356 308.351 772.375 305.4Z" fill="#E6E6E6"/>
<path d="M764.375 254.4C764.394 251.449 762.99 249.044 761.239 249.028C759.488 249.013 758.053 251.392 758.034 254.344C758.015 257.295 759.419 259.7 761.17 259.715C762.921 259.731 764.356 257.351 764.375 254.4Z" fill="#E6E6E6"/>
<path d="M723.375 50.3998C723.394 47.4487 721.99 45.0437 720.239 45.0281C718.488 45.0126 717.053 47.3924 717.034 50.3436C717.015 53.2948 718.419 55.6998 720.17 55.7153C721.921 55.7308 723.356 53.351 723.375 50.3998Z" fill="#3F3D56"/>
<path d="M696.375 38.3998C696.394 35.4487 694.99 33.0437 693.239 33.0281C691.488 33.0126 690.053 35.3924 690.034 38.3436C690.015 41.2948 691.419 43.6998 693.17 43.7153C694.921 43.7308 696.356 41.351 696.375 38.3998Z" fill="#3F3D56"/>
<path d="M741.375 70.3998C741.394 67.4487 739.99 65.0437 738.239 65.0281C736.488 65.0126 735.053 67.3924 735.034 70.3436C735.015 73.2948 736.419 75.6998 738.17 75.7153C739.921 75.7308 741.356 73.351 741.375 70.3998Z" fill="#3F3D56"/>
<path d="M240.375 49.3998C240.394 46.4487 238.99 44.0437 237.239 44.0281C235.488 44.0126 234.053 46.3924 234.034 49.3436C234.015 52.2948 235.419 54.6998 237.17 54.7153C238.921 54.7308 240.356 52.351 240.375 49.3998Z" fill="#3F3D56"/>
</g>
<defs>
<clipPath id="clip0_1_2">
<rect width="808" height="557" fill="white"/>
</clipPath>
</defs>
</svg>
